<svg width="16" height="17" fill="none" xmlns="http://www.w3.org/2000/svg"><path d="M1 9.984h11.86l-3.63 4.918a1.18 1.18 0 00-.186.388c-.04.142-.053.29-.041.438.024.299.153.574.357.765a.927.927 0 00.732.256.972.972 0 00.678-.402l5-6.77c.034-.053.064-.11.09-.169 0-.056.05-.09.07-.147.045-.129.07-.267.07-.406s-.025-.276-.07-.406c0-.056-.05-.09-.07-.147a1.396 1.396 0 00-.09-.169l-5-6.769a1.026 1.026 0 00-.345-.3A.906.906 0 0010 .958a.933.933 0 00-.64.26 1.113 1.113 0 00-.246.342 1.266 1.266 0 00-.07.861c.038.142.102.273.186.387l3.63 4.92H1a.946.946 0 00-.707.33A1.206 1.206 0 000 8.855c0 .3.105.586.293.798.187.212.442.33.707.33z" fill="#23282E"/></svg>