<svg width="16" height="16" fill="none" xmlns="http://www.w3.org/2000/svg"><path d="M1 9.026h11.86l-3.63 4.919a1.18 1.18 0 00-.186.387c-.04.142-.053.29-.041.438.024.299.153.574.357.765a.927.927 0 00.732.256.972.972 0 00.678-.402l5-6.77c.034-.053.064-.11.09-.169 0-.056.05-.09.07-.146.045-.13.07-.267.07-.407 0-.139-.025-.276-.07-.406 0-.056-.05-.09-.07-.146a1.395 1.395 0 00-.09-.17l-5-6.769a1.026 1.026 0 00-.345-.3A.906.906 0 0010 0a.933.933 0 00-.64.26 1.113 1.113 0 00-.246.342 1.266 1.266 0 00-.07.861c.038.142.102.273.186.387l3.63 4.92H1a.946.946 0 00-.707.33A1.206 1.206 0 000 7.897c0 .3.105.587.293.798.187.212.442.33.707.33z" fill="#fff"/></svg>